HIERARCHY
ROOT Storm:Solving:Root
{
	OFFSET 0.000000 0.000000 0.000000
	CHANNELS 6 Xposition Yposition Zposition Xrotation Yrotation Zrotation
	JOINT Storm:Solving:L_Clav
	{
		OFFSET 0.000000 0.000000 0.000000
		CHANNELS 6 Xposition Yposition Zposition Xrotation Yrotation Zrotation
		JOINT Storm:Solving:L_Scapula_Joint
		{
			OFFSET 4.000000 0.000000 0.000000
			CHANNELS 6 Xposition Yposition Zposition Xrotation Yrotation Zrotation
			JOINT Storm:Solving:L_Shoulder_Joint
			{
				OFFSET 4.002680 -10.770058 -11.084216
				CHANNELS 6 Xposition Yposition Zposition Xrotation Yrotation Zrotation
				JOINT Storm:Solving:L_Elbow_Joint
				{
					OFFSET 2.147804 8.035205 -15.161017
					CHANNELS 6 Xposition Yposition Zposition Xrotation Yrotation Zrotation
					JOINT Storm:Solving:L_Wrist_Joint
					{
						OFFSET -2.240269 9.040073 -20.029085
						CHANNELS 6 Xposition Yposition Zposition Xrotation Yrotation Zrotation
						JOINT Storm:Solving:L_Paw_Joint
						{
							OFFSET 0.706234 -1.834930 -5.721245
							CHANNELS 6 Xposition Yposition Zposition Xrotation Yrotation Zrotation
							End Site
							{
								OFFSET 1.343818 -4.244948 -3.510090
							}
						}
					}
				}
			}
		}
	}
	JOINT Storm:Solving:R_Clav
	{
		OFFSET 0.000000 0.000000 0.000000
		CHANNELS 6 Xposition Yposition Zposition Xrotation Yrotation Zrotation
		JOINT Storm:Solving:R_Scapula_Joint
		{
			OFFSET -4.000000 -0.000001 0.000000
			CHANNELS 6 Xposition Yposition Zposition Xrotation Yrotation Zrotation
			JOINT Storm:Solving:NewBone_3
			{
				OFFSET -4.614829 -9.889530 -11.686038
				CHANNELS 6 Xposition Yposition Zposition Xrotation Yrotation Zrotation
				JOINT Storm:Solving:R_Elbow_Joint
				{
					OFFSET -0.160743 5.491839 -16.404385
					CHANNELS 6 Xposition Yposition Zposition Xrotation Yrotation Zrotation
					JOINT Storm:Solving:R_Wrist_Joint
					{
						OFFSET 2.412016 -1.190895 -21.935680
						CHANNELS 6 Xposition Yposition Zposition Xrotation Yrotation Zrotation
						JOINT Storm:Solving:R_Paw_Joint
						{
							OFFSET -0.535018 -3.806499 -3.351765
							CHANNELS 6 Xposition Yposition Zposition Xrotation Yrotation Zrotation
							End Site
							{
								OFFSET -0.877549 -5.252174 -2.975662
							}
						}
					}
				}
			}
		}
	}
	JOINT Storm:Solving:Root_To_Spine_Dummy
	{
		OFFSET 0.000000 0.000000 0.000000
		CHANNELS 6 Xposition Yposition Zposition Xrotation Yrotation Zrotation
		JOINT Storm:Solving:Spine1
		{
			OFFSET 0.000000 3.827275 -0.000000
			CHANNELS 6 Xposition Yposition Zposition Xrotation Yrotation Zrotation
			JOINT Storm:Solving:Spine2
			{
				OFFSET 0.000001 16.939260 -0.000001
				CHANNELS 6 Xposition Yposition Zposition Xrotation Yrotation Zrotation
				JOINT Storm:Solving:Spine3
				{
					OFFSET 0.000002 14.393892 -0.000001
					CHANNELS 6 Xposition Yposition Zposition Xrotation Yrotation Zrotation
					JOINT Storm:Solving:Pelvis_Root
					{
						OFFSET 0.000002 14.393890 -0.000001
						CHANNELS 6 Xposition Yposition Zposition Xrotation Yrotation Zrotation
						JOINT Storm:Solving:L_Pelvis
						{
							OFFSET 0.000000 0.000000 0.000000
							CHANNELS 6 Xposition Yposition Zposition Xrotation Yrotation Zrotation
							JOINT Storm:Solving:LFemur_Joint
							{
								OFFSET 8.318080 6.728058 -6.780919
								CHANNELS 6 Xposition Yposition Zposition Xrotation Yrotation Zrotation
								JOINT Storm:Solving:LTibia_Joint
								{
									OFFSET 4.762119 -12.109562 -18.232958
									CHANNELS 6 Xposition Yposition Zposition Xrotation Yrotation Zrotation
									JOINT Storm:Solving:LAnkle_Joint
									{
										OFFSET 1.748854 12.690498 -18.426313
										CHANNELS 6 Xposition Yposition Zposition Xrotation Yrotation Zrotation
										JOINT Storm:Solving:LFoot_Joint
										{
											OFFSET 2.893215 -3.420891 -10.324425
											CHANNELS 6 Xposition Yposition Zposition Xrotation Yrotation Zrotation
											End Site
											{
												OFFSET 3.317142 -6.178677 -1.153622
											}
										}
									}
								}
							}
						}
						JOINT Storm:Solving:R_Pelvis
						{
							OFFSET 0.000000 0.000000 0.000000
							CHANNELS 6 Xposition Yposition Zposition Xrotation Yrotation Zrotation
							JOINT Storm:Solving:RFemur_Joint
							{
								OFFSET -8.082922 6.553699 -7.104603
								CHANNELS 6 Xposition Yposition Zposition Xrotation Yrotation Zrotation
								JOINT Storm:Solving:RTibia_Joint
								{
									OFFSET -3.034004 -11.551189 -18.950596
									CHANNELS 6 Xposition Yposition Zposition Xrotation Yrotation Zrotation
									JOINT Storm:Solving:RAnkle_Joint
									{
										OFFSET 0.163292 10.210636 -19.936810
										CHANNELS 6 Xposition Yposition Zposition Xrotation Yrotation Zrotation
										JOINT Storm:Solving:RFoot_Joint
										{
											OFFSET -0.793680 -0.101715 -9.967937
											CHANNELS 6 Xposition Yposition Zposition Xrotation Yrotation Zrotation
											End Site
											{
												OFFSET -4.434014 -4.525612 -1.490955
											}
										}
									}
								}
							}
						}
					}
				}
			}
		}
	}
	JOINT Storm:Solving:Root_To_Neck
	{
		OFFSET 0.000000 0.000000 0.000000
		CHANNELS 6 Xposition Yposition Zposition Xrotation Yrotation Zrotation
		JOINT Storm:Solving:Neck1
		{
			OFFSET 0.000000 -5.729186 4.185542
			CHANNELS 6 Xposition Yposition Zposition Xrotation Yrotation Zrotation
			JOINT Storm:Solving:Neck2
			{
				OFFSET 2.125778 -7.100437 5.862305
				CHANNELS 6 Xposition Yposition Zposition Xrotation Yrotation Zrotation
				JOINT Storm:Solving:Head
				{
					OFFSET -4.381103 -1.801980 5.689912
					CHANNELS 6 Xposition Yposition Zposition Xrotation Yrotation Zrotation
					JOINT Storm:Solving:Head_End
					{
						OFFSET -9.753127 -15.562062 2.579649
						CHANNELS 6 Xposition Yposition Zposition Xrotation Yrotation Zrotation
						End Site
						{
							OFFSET -4.085258 5.421284 17.259089
						}
					}
				}
			}
		}
	}
	JOINT Storm:Solving:R_Clav_1
	{
		OFFSET 0.000000 0.000000 0.000000
		CHANNELS 6 Xposition Yposition Zposition Xrotation Yrotation Zrotation
		End Site
		{
			OFFSET 0.000000 0.000000 0.010000
		}
	}
}
MOTION
Frames: 4
Frame Time: 0.041667
120.396393 28.294376 55.931046 -4.239675 19.010438 102.980818 -0.000002 -0.000012 0.000003 -2.530150 -12.591972 -0.551932 4.000004 0.000005 0.000006 -4.329095 23.378542 2.323771 4.002670 -10.770061 -11.084214 -1.928499 1.813786 -10.877784 2.147796 8.035217 -15.161009 -27.525538 -14.585464 -5.833270 -2.240272 9.040080 -20.029085 -10.598509 -7.660761 -7.472393 0.706234 -1.834937 -5.721247 7.307741 2.276832 0.210604 -0.000002 -0.000012 0.000003 2.725054 6.770086 -0.321483 -3.999996 0.000008 0.000009 1.632167 2.418144 -4.606908 -4.614824 -9.889525 -11.686044 7.220891 -4.551983 6.672845 -0.160736 5.491828 -16.404390 -18.817612 -0.598060 -2.133920 2.412021 -1.190895 -21.935692 -9.097028 4.625438 -6.148465 -0.535024 -3.806495 -3.351753 32.329188 -5.905344 4.963729 -0.000002 -0.000012 0.000003 0.000003 -0.000000 -0.000000 -0.000004 3.827282 -0.000007 -17.157787 4.135678 -7.639004 -0.000002 16.939259 -0.000007 -5.065244 14.108527 8.020915 0.000003 14.393888 0.000002 0.599735 -14.649658 0.487797 -0.000001 14.393880 0.000001 8.292758 4.998770 7.350286 -0.000002 0.000015 0.000017 -0.000000 0.000000 -0.000007 8.318093 6.728059 -6.780906 9.773312 3.720369 -6.561261 4.762122 -12.109562 -18.232954 -9.857720 -1.590689 -2.304238 1.748843 12.690501 -18.426306 -11.011920 6.017155 -3.646443 2.893218 -3.420878 -10.324429 -6.260668 -3.177053 -0.854870 -0.000000 0.000019 0.000021 0.000006 0.000012 0.000009 -8.082924 6.553692 -7.104600 -19.334034 -5.570934 2.196895 -3.034015 -11.551200 -18.950605 -6.269829 1.024410 0.544677 0.163302 10.210629 -19.936819 -4.962856 -3.588938 0.216946 -0.793682 -0.101693 -9.967931 22.751292 -20.822861 2.659186 -0.000002 -0.000012 0.000003 0.000003 -0.000000 -0.000001 0.000005 -5.729200 4.185530 0.860071 1.066113 0.943326 2.125783 -7.100447 5.862308 45.210873 35.384365 13.112124 -4.381099 -1.801980 5.689898 -19.704840 -5.073870 4.617916 -9.753142 -15.562065 2.579669 -0.000010 -0.000006 -0.000000 -0.000002 -0.000012 0.000003 0.000003 -0.000000 -0.000000 
120.602448 28.435032 55.904606 -4.472561 18.989128 103.348473 -0.000000 -0.000010 -0.000002 -2.454228 -12.773122 -0.542924 3.999997 -0.000007 0.000009 -4.222401 23.526469 2.197752 4.002681 -10.770060 -11.084228 -1.931953 1.775161 -10.793630 2.147795 8.035211 -15.161008 -27.449827 -14.506202 -5.748461 -2.240264 9.040048 -20.029108 -10.743084 -7.819767 -7.767649 0.706238 -1.834928 -5.721254 6.982162 2.174938 0.207412 -0.000000 -0.000010 -0.000002 2.746290 7.220184 -0.345422 -3.999995 -0.000007 0.000014 1.499266 1.577258 -4.727076 -4.614836 -9.889532 -11.686032 8.572423 -3.902890 6.609279 -0.160743 5.491838 -16.404383 -22.385863 -0.630875 -2.554484 2.412007 -1.190884 -21.935694 -8.223331 5.808366 -6.345064 -0.535019 -3.806493 -3.351756 42.527565 -7.069738 7.104420 -0.000000 -0.000010 -0.000002 -0.000000 0.000000 -0.000001 0.000001 3.827258 -0.000001 -17.009553 4.032309 -7.766795 0.000003 16.939259 -0.000005 -5.253333 14.046723 8.051681 -0.000006 14.393877 -0.000003 0.393835 -16.697963 0.541305 0.000001 14.393891 0.000001 8.487008 6.906828 6.859337 -0.000005 0.000004 0.000008 0.000003 0.000006 -0.000001 8.318081 6.728064 -6.780921 9.880553 3.549946 -6.477707 4.762121 -12.109570 -18.232954 -9.586978 -1.552531 -2.237644 1.748854 12.690516 -18.426323 -10.747980 6.207455 -3.661995 2.893214 -3.420879 -10.324423 -6.736727 -3.413213 -0.933677 -0.000002 -0.000008 0.000014 0.000009 0.000006 0.000003 -8.082915 6.553695 -7.104613 -18.658634 -5.483377 2.858366 -3.034010 -11.551176 -18.950584 -8.633448 1.393727 0.778348 0.163295 10.210627 -19.936813 -2.506320 -4.172164 0.195191 -0.793688 -0.101702 -9.967949 22.842803 -20.897343 2.686052 -0.000000 -0.000010 -0.000002 0.000003 0.000000 -0.000000 -0.000000 -5.729161 4.185517 0.757157 1.179364 1.111932 2.125772 -7.100451 5.862313 45.313985 35.403934 13.106154 -4.381113 -1.801974 5.689924 -19.579314 -5.142064 4.277938 -9.753143 -15.562067 2.579656 0.000003 -0.000007 -0.000001 -0.000000 -0.000010 -0.000002 -0.000001 0.000000 -0.000001 
120.827141 28.574400 55.873695 -4.670304 19.033056 103.763571 -0.000003 -0.000007 0.000013 -2.399520 -12.901285 -0.536045 4.000003 -0.000005 0.000002 -4.066480 23.572607 1.926063 4.002660 -10.770052 -11.084219 -1.872392 1.887657 -10.762763 2.147790 8.035211 -15.161013 -27.525065 -14.574901 -5.898048 -2.240268 9.040077 -20.029089 -10.990655 -7.677087 -7.908819 0.706236 -1.834921 -5.721249 7.127895 2.220546 0.208907 -0.000003 -0.000007 0.000013 2.805710 8.110516 -0.396150 -4.000003 0.000012 0.000010 1.314594 0.201422 -4.895489 -4.614827 -9.889547 -11.686034 9.896774 -3.126371 6.805333 -0.160751 5.491860 -16.404387 -26.518582 -0.636086 -3.042986 2.412009 -1.190901 -21.935684 -6.481614 8.116132 -6.737921 -0.535027 -3.806524 -3.351747 54.179567 -7.909983 9.748301 -0.000003 -0.000007 0.000013 0.000001 -0.000000 -0.000000 -0.000004 3.827273 0.000008 -16.946032 3.904611 -7.917200 0.000000 16.939245 -0.000001 -5.615987 13.960904 8.150473 0.000002 14.393892 0.000002 0.521562 -18.803384 0.565154 -0.000002 14.393888 -0.000003 8.661781 8.817964 6.365910 0.000003 0.000004 0.000001 -0.000001 0.000005 0.000004 8.318079 6.728062 -6.780924 10.011132 3.526169 -6.435046 4.762119 -12.109574 -18.232950 -9.437149 -1.531272 -2.200863 1.748858 12.690507 -18.426321 -10.601685 6.399644 -3.689835 2.893218 -3.420905 -10.324430 -7.135772 -3.610485 -1.001205 0.000005 0.000008 0.000009 0.000007 0.000004 0.000008 -8.082921 6.553705 -7.104596 -18.239918 -5.385773 3.046570 -3.034016 -11.551187 -18.950598 -10.442504 1.669509 0.967258 0.163296 10.210629 -19.936811 0.152975 -4.659179 0.137306 -0.793694 -0.101677 -9.967943 21.357523 -19.675150 2.264579 -0.000003 -0.000007 0.000013 0.000009 -0.000000 -0.000001 -0.000002 -5.729185 4.185521 0.610614 1.254366 1.253553 2.125770 -7.100423 5.862299 45.297821 35.369889 13.130543 -4.381098 -1.801975 5.689906 -19.282239 -5.176383 3.974328 -9.753133 -15.562034 2.579672 -0.000001 -0.000005 -0.000003 -0.000003 -0.000007 0.000013 0.000001 -0.000000 -0.000000 
121.043129 28.707502 55.826065 -4.839935 19.078928 104.198224 -0.000004 -0.000018 -0.000001 -2.365985 -13.078300 -0.535672 4.000001 0.000001 -0.000002 -3.955734 23.668168 1.704413 4.002680 -10.770076 -11.084218 -1.731440 2.045092 -10.799127 2.147803 8.035196 -15.161013 -27.626058 -14.663631 -5.755111 -2.240263 9.040058 -20.029095 -11.001788 -7.626541 -8.072683 0.706239 -1.834931 -5.721231 6.809104 2.120787 0.205474 -0.000004 -0.000018 -0.000001 2.757031 8.431890 -0.404576 -3.999996 0.000006 0.000003 1.106071 -0.425459 -5.197934 -4.614831 -9.889530 -11.686043 11.667122 -2.430353 6.799548 -0.160738 5.491852 -16.404408 -31.628291 -0.593854 -3.645472 2.412030 -1.190894 -21.935701 -0.908713 9.008504 -7.282664 -0.535023 -3.806492 -3.351744 61.825875 -8.164537 11.549905 -0.000004 -0.000018 -0.000001 0.000001 -0.000000 -0.000001 -0.000003 3.827274 0.000004 -16.870909 3.741241 -8.047985 -0.000003 16.939276 -0.000006 -5.921126 13.470205 8.204497 0.000005 14.393885 -0.000003 0.631865 -18.404940 0.491399 0.000002 14.393865 0.000004 8.781446 8.827759 6.379277 0.000004 0.000000 -0.000005 -0.000002 0.000005 0.000007 8.318088 6.728062 -6.780917 10.020059 3.339527 -6.520009 4.762113 -12.109562 -18.232954 -9.148807 -1.490088 -2.130221 1.748854 12.690499 -18.426313 -10.455952 6.661717 -3.734056 2.893212 -3.420888 -10.324417 -7.489572 -3.784860 -1.062197 0.000005 0.000000 0.000005 0.000009 0.000001 0.000005 -8.082917 6.553710 -7.104608 -17.999401 -5.427001 2.835503 -3.034004 -11.551188 -18.950596 -11.310663 1.799642 1.060957 0.163301 10.210623 -19.936804 2.841798 -5.617170 0.080554 -0.793683 -0.101705 -9.967939 17.682270 -16.536918 1.358772 -0.000004 -0.000018 -0.000001 0.000002 -0.000001 -0.000001 -0.000000 -5.729176 4.185527 0.461576 1.325974 1.393070 2.125764 -7.100429 5.862297 45.316977 35.262187 13.213740 -4.381112 -1.801972 5.689902 -18.944602 -5.161558 3.764919 -9.753115 -15.562066 2.579652 -0.000008 0.000003 -0.000005 -0.000004 -0.000018 -0.000001 0.000001 -0.000000 -0.000001 
